<mxfile host="app.diagrams.net" modified="2024-06-02T15:53:42.523Z" agent="Mozilla/5.0 (Windows NT 10.0; Win64; x64) AppleWebKit/537.36 (KHTML, like Gecko) Chrome/125.0.0.0 Safari/537.36 Edg/125.0.0.0" etag="oMAV7T7MwJ7jSsqdMz6b" version="24.4.13" type="device">
  <diagram name="Strona-1" id="yMfgACCVDHIE7Zv_jqYe">
    <mxGraphModel dx="1216" dy="672" grid="1" gridSize="10" guides="1" tooltips="1" connect="1" arrows="1" fold="1" page="1" pageScale="1" pageWidth="827" pageHeight="1169" math="0" shadow="0">
      <root>
        <mxCell id="0" />
        <mxCell id="1" parent="0" />
        <mxCell id="Rf-qGiCUVa9dB-T95Rlr-1" value="" style="rounded=0;whiteSpace=wrap;html=1;" parent="1" vertex="1">
          <mxGeometry x="220" y="190" width="450" height="320" as="geometry" />
        </mxCell>
        <mxCell id="Rf-qGiCUVa9dB-T95Rlr-4" value="&lt;b&gt;Nazwa użytkownika:&lt;/b&gt;" style="text;html=1;align=center;verticalAlign=middle;whiteSpace=wrap;rounded=0;" parent="1" vertex="1">
          <mxGeometry x="300" y="260" width="90" height="30" as="geometry" />
        </mxCell>
        <mxCell id="Rf-qGiCUVa9dB-T95Rlr-5" value="" style="rounded=0;whiteSpace=wrap;html=1;" parent="1" vertex="1">
          <mxGeometry x="400" y="265" width="120" height="20" as="geometry" />
        </mxCell>
        <mxCell id="Rf-qGiCUVa9dB-T95Rlr-6" style="edgeStyle=orthogonalEdgeStyle;rounded=0;orthogonalLoop=1;jettySize=auto;html=1;exitX=0.5;exitY=1;exitDx=0;exitDy=0;" parent="1" source="Rf-qGiCUVa9dB-T95Rlr-5" target="Rf-qGiCUVa9dB-T95Rlr-5" edge="1">
          <mxGeometry relative="1" as="geometry" />
        </mxCell>
        <mxCell id="Rf-qGiCUVa9dB-T95Rlr-7" value="&lt;b&gt;Hasło:&lt;/b&gt;" style="text;html=1;align=center;verticalAlign=middle;whiteSpace=wrap;rounded=0;" parent="1" vertex="1">
          <mxGeometry x="315" y="295" width="60" height="30" as="geometry" />
        </mxCell>
        <mxCell id="Rf-qGiCUVa9dB-T95Rlr-8" value="" style="rounded=0;whiteSpace=wrap;html=1;" parent="1" vertex="1">
          <mxGeometry x="400" y="300" width="120" height="20" as="geometry" />
        </mxCell>
        <mxCell id="Rf-qGiCUVa9dB-T95Rlr-10" value="" style="rounded=0;whiteSpace=wrap;html=1;" parent="1" vertex="1">
          <mxGeometry x="300" y="380" width="120" height="60" as="geometry" />
        </mxCell>
        <mxCell id="Rf-qGiCUVa9dB-T95Rlr-11" value="&lt;b&gt;Zaloguj się&lt;/b&gt;" style="text;html=1;align=center;verticalAlign=middle;whiteSpace=wrap;rounded=0;" parent="1" vertex="1">
          <mxGeometry x="320" y="395" width="80" height="30" as="geometry" />
        </mxCell>
        <mxCell id="Rf-qGiCUVa9dB-T95Rlr-12" value="" style="rounded=0;whiteSpace=wrap;html=1;" parent="1" vertex="1">
          <mxGeometry x="440" y="380" width="130" height="60" as="geometry" />
        </mxCell>
        <mxCell id="Rf-qGiCUVa9dB-T95Rlr-13" value="&lt;b&gt;Formularz Rejestracji&lt;/b&gt;" style="text;html=1;align=center;verticalAlign=middle;whiteSpace=wrap;rounded=0;" parent="1" vertex="1">
          <mxGeometry x="465" y="395" width="80" height="30" as="geometry" />
        </mxCell>
        <mxCell id="Rf-qGiCUVa9dB-T95Rlr-15" value="&lt;b&gt;Zapomniałeś hasła? &lt;u&gt;Kliknij&lt;/u&gt;&lt;/b&gt;" style="text;html=1;align=center;verticalAlign=middle;whiteSpace=wrap;rounded=0;" parent="1" vertex="1">
          <mxGeometry x="335" y="450" width="210" height="30" as="geometry" />
        </mxCell>
      </root>
    </mxGraphModel>
  </diagram>
</mxfile>
